# xmcd CD database file
#
# Track frame offsets:
#	150
#	31160
#	50282
#	78444
#	103639
#	130042
#	152111
#	171247
#	192632
#	217189
#	233700
#	255316
#	290148
#	311932
#	330555
#
# Disc length: 4631 seconds
#
# Revision: 0
# Processed by: cddbd v1.5.2PL0 Copyright (c) Steve Scherf et al.
# Submitted via: CDex 1.51
#
DISCID=d712150f
DTITLE=Sammy Nestico and SWR Big Band - Fun Time
DYEAR=2009
DGENRE=Jazz
TTITLE0=Blue Samuel
TTITLE1=A New Day
TTITLE2=A Pair of Aces
TTITLE3=Out of the Night
TTITLE4=D'Ann
TTITLE5=Fun Time
TTITLE6=Celebracion
TTITLE7=Stuttin' with some Barbeuce
TTITLE8=Orchids and Butterflies
TTITLE9=Not really the Blues
TTITLE10=The Four of Us (You 'N' Me)
TTITLE11=Rare Moment
TTITLE12=Bye Bye Blues
TTITLE13=A Song for Sarah
TTITLE14=King Porter Stomp
EXTD=YEAR: 2009
EXTT0=
EXTT1=
EXTT2=
EXTT3=
EXTT4=
EXTT5=
EXTT6=
EXTT7=
EXTT8=
EXTT9=
EXTT10=
EXTT11=
EXTT12=
EXTT13=
EXTT14=
PLAYORDER=
